# xmcd CD database file
#
# Track frame offsets:
#	150
#	22007
#	37145
#	58521
#	74538
#	90742
#	109742
#	126552
#	147318
#	165587
#	183207
#	196445
#	213041
#
# Disc length: 3030 seconds
#
# Revision: 1
# Processed by: cddbd v1.5.2PL0 Copyright (c) Steve Scherf et al.
# Submitted via: CDex 1.51
#
DISCID=c10bd40d
DTITLE=The Selective Soul Club - The Motown Party 2011
DYEAR=2010
DGENRE=Jazz
TTITLE0=The Motown Party
TTITLE1=Signed, Sealed, Delivered, I'm Your's
TTITLE2=Papa Was A Rolling Stone
TTITLE3=Dancing In The Street
TTITLE4=As
TTITLE5=25 Miles
TTITLE6=I Wish
TTITLE7=Over That Man
TTITLE8=What's Going On
TTITLE9=Ain't That Peculiar
TTITLE10=I Can't Get Next To You
TTITLE11=Reach Out, I'll Be There
TTITLE12=Too Shy To Say
EXTD=YEAR: 2010
EXTT0=
EXTT1=
EXTT2=
EXTT3=
EXTT4=
EXTT5=
EXTT6=
EXTT7=
EXTT8=
EXTT9=
EXTT10=
EXTT11=
EXTT12=
PLAYORDER=
